<svg xmlns="http://www.w3.org/2000/svg" viewBox="0 0 90.02 21.816">
  <defs>
    <style>
      .cls-1 {
        fill: #555b5f;
      }
    </style>
  </defs>
  <g id="Symbol_26_1" data-name="Symbol 26 – 1" transform="translate(-191.981 -14.927)">
    <path id="Path_799" data-name="Path 799" class="cls-1" d="M336.293,26.3v6.028h4.191V26.3h1.435v6.028h1.665l-.287,2.813h-1.263V33.534H334.8V26.3Z" transform="translate(-142.59 -11.201)"/>
    <path id="Path_800" data-name="Path 800" class="cls-1" d="M355.963,34.982v-3.5a42.092,42.092,0,0,1-2.985,3.5H351.6V29.7h1.378v3.617a25.624,25.624,0,0,0,2.985-3.617h1.378v5.282Z" transform="translate(-149.745 -12.649)"/>
    <path id="Path_801" data-name="Path 801" class="cls-1" d="M369.382,35.358h-1.32V33.521c-3.1-.115-3.961-.746-3.961-2.813.057-2.009.861-2.7,3.961-2.756V26h1.378v1.952c3.1.057,3.9.746,3.961,2.756-.057,2.009-.861,2.7-3.961,2.813v1.837Zm-3.387-3.272a4.15,4.15,0,0,0,2.067.344V29.043c-2.182.057-2.526.287-2.583,1.722A1.5,1.5,0,0,0,365.995,32.086Zm5.454-2.7a4.15,4.15,0,0,0-2.067-.344V32.43a4.15,4.15,0,0,0,2.067-.344,1.55,1.55,0,0,0,.517-1.378A1.5,1.5,0,0,0,371.449,29.387Z" transform="translate(-155.069 -11.073)"/>
    <path id="Path_802" data-name="Path 802" class="cls-1" d="M383.978,34.51v2.3H382.6V29.744a9.633,9.633,0,0,1,2.813-.344,3.636,3.636,0,0,1,2.354.574,2.753,2.753,0,0,1,.689,2.182,3.09,3.09,0,0,1-.632,2.182,2.8,2.8,0,0,1-2.009.632A3.37,3.37,0,0,1,383.978,34.51Zm0-3.846v2.7c0,.344.632.517,1.493.517a1.822,1.822,0,0,0,1.32-.344,1.919,1.919,0,0,0,.344-1.32,2.073,2.073,0,0,0-.344-1.435,2,2,0,0,0-1.378-.344A10.714,10.714,0,0,0,383.978,30.663Z" transform="translate(-162.948 -12.521)"/>
    <path id="Path_803" data-name="Path 803" class="cls-1" d="M395.846,34.395a2.641,2.641,0,0,1-.746-2.182,2.641,2.641,0,0,1,.746-2.182,4.7,4.7,0,0,1,4.708,0,2.641,2.641,0,0,1,.746,2.182,2.641,2.641,0,0,1-.746,2.182,3.721,3.721,0,0,1-2.354.632A4.122,4.122,0,0,1,395.846,34.395Zm1.033-.8a2.7,2.7,0,0,0,2.641,0,2.073,2.073,0,0,0,.344-1.435,2.073,2.073,0,0,0-.344-1.435,2.7,2.7,0,0,0-2.641,0,2.073,2.073,0,0,0-.344,1.435A2.073,2.073,0,0,0,396.88,33.591Z" transform="translate(-168.271 -12.521)"/>
    <path id="Path_804" data-name="Path 804" class="cls-1" d="M414.4,33.547c0,.976-.632,1.435-1.837,1.435H408.6V29.7h3.9c1.32,0,1.722.4,1.722,1.263,0,.8-.287,1.148-1.378,1.206Q414.4,32.169,414.4,33.547Zm-2.3-1.837c.574,0,.689-.172.689-.517,0-.4-.172-.517-.689-.517h-2.124v1.033Zm0,2.239c.632,0,.861-.172.861-.574,0-.517-.287-.689-.976-.689h-2.009v1.263Z" transform="translate(-174.021 -12.649)"/>
    <path id="Path_805" data-name="Path 805" class="cls-1" d="M421.646,34.395a2.641,2.641,0,0,1-.746-2.182,2.641,2.641,0,0,1,.746-2.182,4.7,4.7,0,0,1,4.708,0,2.641,2.641,0,0,1,.746,2.182,2.641,2.641,0,0,1-.746,2.182,3.721,3.721,0,0,1-2.354.632A3.984,3.984,0,0,1,421.646,34.395Zm.976-.8a2.7,2.7,0,0,0,2.641,0,2.073,2.073,0,0,0,.344-1.435,2.073,2.073,0,0,0-.344-1.435,2.7,2.7,0,0,0-2.641,0,2.073,2.073,0,0,0-.344,1.435A2.073,2.073,0,0,0,422.622,33.591Z" transform="translate(-179.259 -12.521)"/>
    <path id="Path_806" data-name="Path 806" class="cls-1" d="M439.01,30.029c.517.4.689,1.148.689,2.3v.287h-4.363a1.3,1.3,0,0,0,.4,1.091,2.934,2.934,0,0,0,1.493.287,6.451,6.451,0,0,0,1.837-.23l.23,1.091a10.061,10.061,0,0,1-2.3.287,3.651,3.651,0,0,1-2.3-.632,2.653,2.653,0,0,1-.8-2.182c0-2.009,1.033-2.756,2.985-2.756A2.387,2.387,0,0,1,439.01,30.029Zm-3.272.689a1.256,1.256,0,0,0-.4.919h2.928a1.056,1.056,0,0,0-.344-.919,1.707,1.707,0,0,0-1.091-.23A1.815,1.815,0,0,0,435.737,30.717Z" transform="translate(-184.796 -12.576)"/>
    <path id="Path_807" data-name="Path 807" class="cls-1" d="M335.778,52.491v4.191H334.4V51.4h5.626v5.282h-1.378V52.491Z" transform="translate(-142.419 -21.891)"/>
    <path id="Path_808" data-name="Path 808" class="cls-1" d="M348.678,56.21v2.3H347.3V51.444a9.632,9.632,0,0,1,2.813-.344,3.636,3.636,0,0,1,2.354.574,2.753,2.753,0,0,1,.689,2.182,3.091,3.091,0,0,1-.631,2.182,2.8,2.8,0,0,1-2.009.632A3.5,3.5,0,0,1,348.678,56.21Zm0-3.846v2.7c0,.344.632.517,1.493.517a1.822,1.822,0,0,0,1.32-.344,1.919,1.919,0,0,0,.344-1.32,2.073,2.073,0,0,0-.344-1.435,2,2,0,0,0-1.378-.344A10.713,10.713,0,0,0,348.678,52.363Z" transform="translate(-147.914 -21.763)"/>
    <path id="Path_809" data-name="Path 809" class="cls-1" d="M365.01,51.729c.517.4.689,1.148.689,2.3v.287h-4.363a1.3,1.3,0,0,0,.4,1.091,2.934,2.934,0,0,0,1.493.287,6.451,6.451,0,0,0,1.837-.23l.23,1.091a10.061,10.061,0,0,1-2.3.287,3.652,3.652,0,0,1-2.3-.632,2.653,2.653,0,0,1-.8-2.182c0-2.009,1.033-2.756,2.985-2.756A2.387,2.387,0,0,1,365.01,51.729Zm-3.272.689a1.256,1.256,0,0,0-.4.919h2.928a1.056,1.056,0,0,0-.344-.919,2.705,2.705,0,0,0-2.182,0Z" transform="translate(-153.28 -21.818)"/>
    <path id="Path_810" data-name="Path 810" class="cls-1" d="M378.2,55.246c0,.976-.632,1.435-1.837,1.435H372.4V51.4h3.9c1.32,0,1.722.4,1.722,1.263,0,.8-.287,1.148-1.378,1.206Q378.2,53.869,378.2,55.246Zm-2.3-1.78c.574,0,.689-.172.689-.517,0-.4-.172-.517-.689-.517h-2.124v1.033Zm0,2.239c.632,0,.861-.172.861-.574,0-.517-.287-.689-.976-.689h-2.009v1.263Z" transform="translate(-158.603 -21.891)"/>
    <path id="Path_811" data-name="Path 811" class="cls-1" d="M385.546,56.095a2.641,2.641,0,0,1-.746-2.182,2.641,2.641,0,0,1,.746-2.182,4.7,4.7,0,0,1,4.708,0A2.641,2.641,0,0,1,391,53.913a2.641,2.641,0,0,1-.746,2.182,3.721,3.721,0,0,1-2.354.632A3.984,3.984,0,0,1,385.546,56.095Zm.976-.8a2.7,2.7,0,0,0,2.641,0,3.162,3.162,0,0,0,0-2.871,2.7,2.7,0,0,0-2.641,0,3.162,3.162,0,0,0,0,2.871Z" transform="translate(-163.885 -21.763)"/>
    <path id="Path_812" data-name="Path 812" class="cls-1" d="M402.795,56.439a5.957,5.957,0,0,1-1.837.23,3.837,3.837,0,0,1-2.354-.632,2.653,2.653,0,0,1-.8-2.182,2.526,2.526,0,0,1,.8-2.124,3.837,3.837,0,0,1,2.354-.632,5.958,5.958,0,0,1,1.837.23l-.23,1.091a5.615,5.615,0,0,0-1.493-.172,2.785,2.785,0,0,0-1.493.287,2.563,2.563,0,0,0,0,2.756,2.484,2.484,0,0,0,1.493.344,4.4,4.4,0,0,0,1.55-.23Z" transform="translate(-169.421 -21.763)"/>
    <path id="Path_813" data-name="Path 813" class="cls-1" d="M411.88,56.682a20.121,20.121,0,0,0-1.55-1.78c-.517.574-1.091,1.148-1.722,1.78H407c.632-.632,1.55-1.493,2.641-2.641a36.641,36.641,0,0,0-2.583-2.641h1.78a23.656,23.656,0,0,1,1.607,1.78c.517-.517.976-1.148,1.493-1.78h1.607a30.943,30.943,0,0,1-2.3,2.583c.689.746,1.493,1.665,2.3,2.7H411.88Z" transform="translate(-173.339 -21.891)"/>
    <path id="Path_814" data-name="Path 814" class="cls-1" d="M420.146,56.095a2.641,2.641,0,0,1-.746-2.182,2.641,2.641,0,0,1,.746-2.182,4.7,4.7,0,0,1,4.708,0,2.641,2.641,0,0,1,.746,2.182,2.641,2.641,0,0,1-.746,2.182,3.721,3.721,0,0,1-2.354.632A4.122,4.122,0,0,1,420.146,56.095Zm1.033-.8a2.7,2.7,0,0,0,2.641,0,3.162,3.162,0,0,0,0-2.871,2.7,2.7,0,0,0-2.641,0,3.163,3.163,0,0,0,0,2.871Z" transform="translate(-178.621 -21.763)"/>
    <path id="Path_815" data-name="Path 815" class="cls-1" d="M431.3,55.491h1.206a15.851,15.851,0,0,0,.919-4.191h4.765v4.191h1.263l-.4,2.583h-1.033V56.582h-5.339v1.493H431.7Zm3.387-3.043A17.438,17.438,0,0,1,434,55.491h2.871V52.448Z" transform="translate(-183.689 -21.848)"/>
    <path id="Path_816" data-name="Path 816" class="cls-1" d="M451.895,56.439a5.957,5.957,0,0,1-1.837.23,3.837,3.837,0,0,1-2.354-.632,2.653,2.653,0,0,1-.8-2.182,2.526,2.526,0,0,1,.8-2.124,3.837,3.837,0,0,1,2.354-.632,5.957,5.957,0,0,1,1.837.23l-.23,1.091a5.615,5.615,0,0,0-1.493-.172,2.785,2.785,0,0,0-1.493.287,2.563,2.563,0,0,0,0,2.756,2.483,2.483,0,0,0,1.493.344,4.4,4.4,0,0,0,1.55-.23Z" transform="translate(-190.333 -21.763)"/>
    <path id="Path_817" data-name="Path 817" class="cls-1" d="M459.674,52.448v4.191H458.3V52.448H456V51.3h5.971v1.148Z" transform="translate(-194.208 -21.848)"/>
    <path id="Path_818" data-name="Path 818" class="cls-1" d="M473.9,55.246c0,.976-.632,1.435-1.837,1.435H468.1V51.4H472c1.32,0,1.722.4,1.722,1.263,0,.8-.287,1.148-1.378,1.206Q473.9,53.869,473.9,55.246Zm-2.3-1.78c.574,0,.689-.172.689-.517,0-.4-.172-.517-.689-.517h-2.124v1.033Zm0,2.239c.631,0,.861-.172.861-.574,0-.517-.287-.689-.976-.689h-2.009v1.263Z" transform="translate(-199.362 -21.891)"/>
    <path id="Path_819" data-name="Path 819" class="cls-1" d="M481.146,56.095a2.641,2.641,0,0,1-.746-2.182,2.641,2.641,0,0,1,.746-2.182,4.7,4.7,0,0,1,4.708,0,2.641,2.641,0,0,1,.746,2.182,2.641,2.641,0,0,1-.746,2.182,3.721,3.721,0,0,1-2.354.632A4.122,4.122,0,0,1,481.146,56.095Zm1.033-.8a2.7,2.7,0,0,0,2.641,0,3.162,3.162,0,0,0,0-2.871,2.7,2.7,0,0,0-2.641,0,3.163,3.163,0,0,0,0,2.871Z" transform="translate(-204.6 -21.763)"/>
  </g>
</svg>
