<svg xmlns="http://www.w3.org/2000/svg" viewBox="0 0 73 59.45">
  <defs>
    <style>
      .cls-1 {
        fill: #585e62;
      }

      .cls-2 {
        fill: #e94735;
      }
    </style>
  </defs>
  <g id="Symbol_12_4" data-name="Symbol 12 – 4" transform="translate(-344 -772)">
    <path id="Path_495" data-name="Path 495" class="cls-1" d="M19.262,6.361a33.53,33.53,0,0,1-4.935.681C12.456,7.042,10.073,5.51,9.393,5L7.861,6.7,6.5,8.573a13.713,13.713,0,0,0,7.828,3.063,25.039,25.039,0,0,0,5.786-.851h.34L19.6,6.191Z" transform="translate(348.561 775.572)"/>
    <path id="Path_496" data-name="Path 496" class="cls-1" d="M4.765,24.836c.17-2.723.851-9.189,4.254-13.443L5.445,8.5C0,15.307,0,25.686,0,26.027v1.531l1.361.681a9.456,9.456,0,0,1,3.573,4.594l4.594-1.191a15.136,15.136,0,0,0-4.765-6.807" transform="translate(344 778.028)"/>
    <path id="Path_497" data-name="Path 497" class="cls-1" d="M58.038,30.924,56.676,26.5a10.4,10.4,0,0,0-4.765,3.914c-2.212-3.4-5.786-7.147-10.38-11.571C35.406,13.228,28.769,7.952,25.877,6.421,24,5.4,22.644,5.57,20.772,5.4l.17,4.594a8.537,8.537,0,0,1,2.723.51C28.6,13.4,48.679,29.9,50.21,37.731c.17,1.191,0,1.531-.17,1.7a2.054,2.054,0,0,1-1.361.51h0a1.838,1.838,0,0,1-1.191-.51c-.34-.51-8.168-10.72-12.932-13.953L32,29.393c2.893,1.872,8.338,8.168,11.231,12.252-.17.851-.34,1.531-.681,1.7-.17,0-.51.17-1.531-.51-2.723-1.361-4.935-3.573-7.487-6.126-1.361-1.361-2.552-2.552-4.084-3.914L26.387,36.37c1.361,1.191,2.723,2.552,3.914,3.744a44.937,44.937,0,0,0,6.807,5.956,2.349,2.349,0,0,1-.51.681,2.185,2.185,0,0,1-1.7.681c-1.7,0-3.233-1.361-5.615-3.4L26.217,47.6a35.646,35.646,0,0,0,2.893,2.382.366.366,0,0,1-.34.34c-.34.51-1.021.51-1.531.51-1.021,0-3.744-1.531-5.445-2.893L18.9,51.684c.851.681,5.1,3.914,8.338,3.914a6.808,6.808,0,0,0,4.935-1.872,6.111,6.111,0,0,0,1.191-1.7,4.711,4.711,0,0,0,1.531.17A7.2,7.2,0,0,0,40,50.153a6.119,6.119,0,0,0,1.361-2.042c.34,0,.851.17,1.191.17a5.8,5.8,0,0,0,2.723-.681,6.309,6.309,0,0,0,2.212-2.893c.34,0,.851.17,1.191.17h0a6.148,6.148,0,0,0,5.1-2.382c.851-1.021,1.531-2.723,1.021-5.445-.17-.51-.34-1.021-.51-1.7.851-2.042,2.723-4.084,3.744-4.424" transform="translate(357.261 775.853)"/>
    <path id="Path_498" data-name="Path 498" class="cls-2" d="M59.6,25.551A43.588,43.588,0,0,0,50.41,12.789L48.028,15,46.5,13.469C43.774,10.917,34.074,5.642,32.2,4.961c-2.212-.681-11.4-.34-13.1.851a21.15,21.15,0,0,0-1.191,6.3c-.17,2.212-.17,4.254-.17,5.445a2.372,2.372,0,0,0,1.531-.681c1.872-1.191,3.233-4.084,3.573-8l4.765.51c-.34,4.084-1.531,7.317-3.4,9.529a8.315,8.315,0,0,1-5.956,3.233c-2.382.34-4.424-.681-4.935-2.382-.681-2.042-.17-13.953,2.212-17.016C16.377,1.728,18.079.367,24.715.026a33.427,33.427,0,0,1,8.678.51c2.382.681,10.38,4.935,14.634,8.168L50.24,6.663l1.531,1.021c.34.17,6.977,5.1,12.082,15.825Z" transform="translate(353.147 772.038)"/>
    <path id="Path_499" data-name="Path 499" class="cls-2" d="M35.084,30.082a4.925,4.925,0,0,0-2.723-1.531,7.53,7.53,0,0,0-2.893-4.424A6.185,6.185,0,0,0,24.7,23.1a8.322,8.322,0,0,0-2.723-2.723,6.16,6.16,0,0,0-5.445-.34A6.824,6.824,0,0,0,11.772,18a5.593,5.593,0,0,0-2.893.681c-4.254,2.212-6.3,7.657-6.636,9.359A5.868,5.868,0,0,0,3.6,32.974a6.578,6.578,0,0,0,3.233,2.042,5.718,5.718,0,0,0,1.7,2.723A7.894,7.894,0,0,0,13.3,39.611h.17A5.219,5.219,0,0,0,15,41.993a7.155,7.155,0,0,0,4.765,2.042,4.71,4.71,0,0,0,2.212-.51c0,.17.17.17.17.34a5.8,5.8,0,0,0,4.765,2.212h.851c4.254-.51,8.168-6.807,9.019-10.04a6.473,6.473,0,0,0-1.7-5.956M6.837,29.061c.17-1.361,1.872-4.935,4.084-6.126a1.534,1.534,0,0,1,.851-.17,1.213,1.213,0,0,1,1.021.51.954.954,0,0,1,.17,1.021c-.681,2.552-3.744,6.126-4.935,6.3a1.471,1.471,0,0,1-1.021-.51,2.529,2.529,0,0,1-.17-1.021m4.594,5.1a16.8,16.8,0,0,0,6.126-8.678.625.625,0,0,1,.17-.51,1.56,1.56,0,0,1,1.872-.17,1.941,1.941,0,0,1,1.021,2.042c-.851,2.893-5.275,7.317-6.977,8.338a2.256,2.256,0,0,1-2.042-.681c0-.17-.17-.17-.17-.34m6.807,4.765a.9.9,0,0,1-.17-1.191c2.893-2.382,6.3-6.466,7.147-9.7a2.134,2.134,0,0,1,1.531.17,2.124,2.124,0,0,1,.851,2.042c-.851,2.893-5.956,8.338-7.828,9.189-.17.17-1.021,0-1.531-.51m13.953-3.914c-.681,2.723-3.744,6.466-5.1,6.636-.51,0-1.191-.17-1.361-.51l-.17-.17a26.848,26.848,0,0,0,5.786-7.487.594.594,0,0,1,.34.17c.34,0,.681.51.51,1.361" transform="translate(345.501 784.693)"/>
  </g>
</svg>
