<svg xmlns="http://www.w3.org/2000/svg" viewBox="0 0 57.525 61.634">
  <defs>
    <style>
      .cls-1 {
        fill: #585e62;
      }

      .cls-2 {
        fill: #e94735;
      }
    </style>
  </defs>
  <g id="Symbol_16_4" data-name="Symbol 16 – 4" transform="translate(-772 -885)">
    <path id="Path_508" data-name="Path 508" class="cls-1" d="M55.324,20.5H2.054L0,22.554V40.017l2.054,2.054H4.109L2.2,50,5.43,52.051l12.62-9.979H39.181L52.1,52.051,55.324,50l-1.908-7.924H55.47l2.054-2.054V22.554ZM7.484,45.153l.734-3.082h3.228Zm42.41.147-4.256-3.228h3.375Zm3.522-7.337H4.109v-13.5H53.416v13.5Z" transform="translate(772 894.583)"/>
    <path id="Path_509" data-name="Path 509" class="cls-1" d="M20.956,12.1A4.256,4.256,0,1,1,16.7,16.356,4.259,4.259,0,0,1,20.956,12.1" transform="translate(779.807 890.656)"/>
    <path id="Path_510" data-name="Path 510" class="cls-2" d="M8.215,18.637,4.4,17.316l.587-1.908a23.011,23.011,0,0,1,43.437,0l.587,1.908L45.2,18.637l-.587-1.908a19.009,19.009,0,0,0-35.806,0Z" transform="translate(774.057 885)"/>
    <path id="Path_511" data-name="Path 511" class="cls-2" d="M34.84,18.76l-.734-1.908a10.59,10.59,0,0,0-19.958,0l-.734,1.908L9.6,17.44l.734-1.908a14.593,14.593,0,0,1,27.588,0l.734,1.908Z" transform="translate(776.488 887.665)"/>
    <path id="Path_512" data-name="Path 512" class="cls-2" d="M9.145,30.045a1.959,1.959,0,0,1-2.935,0,1.959,1.959,0,0,1,0-2.935,1.959,1.959,0,0,1,2.935,0,2.23,2.23,0,0,1,0,2.935" transform="translate(774.594 897.365)"/>
    <path id="Path_513" data-name="Path 513" class="cls-2" d="M16.645,30.045a1.959,1.959,0,0,1-2.935,0,1.959,1.959,0,0,1,0-2.935,1.959,1.959,0,0,1,2.935,0,1.959,1.959,0,0,1,0,2.935" transform="translate(778.1 897.365)"/>
  </g>
</svg>
