<svg xmlns="http://www.w3.org/2000/svg" viewBox="0 0 50.36 61">
  <defs>
    <style>
      .cls-1 {
        fill: #e94735;
      }

      .cls-2 {
        fill: #585e62;
      }
    </style>
  </defs>
  <g id="Symbol_14_4" data-name="Symbol 14 – 4" transform="translate(-1195 -772)">
    <path id="Path_500" data-name="Path 500" class="cls-1" d="M25.967,24.26,22.421,22.7l-2.837,6.1L16.6,22.7l-3.4,1.56,4.256,9.363-3.121,15.6,3.83.709,1.419-6.667,1.277,6.667,3.83-.709-3.121-15.6Z" transform="translate(1200.526 781.502)"/>
    <path id="Path_501" data-name="Path 501" class="cls-2" d="M21.509,28.656C14.416,28.656,8.6,20,8.6,12.909a12.909,12.909,0,1,1,25.819,0c0,7.093-5.816,15.747-12.909,15.747m0-24.684a8.9,8.9,0,0,0-8.937,8.937c0,5.249,4.256,11.774,8.937,11.774,3.972,0,8.937-5.533,8.937-11.774a8.9,8.9,0,0,0-8.937-8.937" transform="translate(1198.6 772)"/>
    <path id="Path_502" data-name="Path 502" class="cls-2" d="M48.233,51.833H1.986L0,49.988V38.356C0,29.277,8.8,21.9,19.577,21.9H30.784c10.781,0,19.577,7.377,19.577,16.456V49.988ZM3.972,48H46.388V38.214c0-6.951-6.951-12.484-15.6-12.484H19.577c-8.653,0-15.6,5.674-15.6,12.484V48Z" transform="translate(1195 781.167)"/>
  </g>
</svg>
