<svg xmlns="http://www.w3.org/2000/svg" viewBox="0 0 63.027 62.864">
  <defs>
    <style>
      .cls-1 {
        fill: #ff432b;
      }

      .cls-2 {
        fill: #585d61;
      }
    </style>
  </defs>
  <g id="Symbol_18_5" data-name="Symbol 18 – 5" transform="translate(-349 -1160.173)">
    <g id="Group_599" data-name="Group 599" transform="translate(370.629 1160.173)">
      <g id="Group_597" data-name="Group 597" transform="translate(15.649 17.216)">
        <path id="Path_534" data-name="Path 534" class="cls-1" d="M137.391,75.374a10.477,10.477,0,0,1,2.933-8.934,10.457,10.457,0,0,1,14.772.027,10.522,10.522,0,0,1,2.96,8.907l-3.231-.462a7.22,7.22,0,0,0-7.142-8.255h-.027a7.142,7.142,0,0,0-7.06,8.228Z" transform="translate(-137.276 -63.398)"/>
      </g>
      <g id="Group_598" data-name="Group 598">
        <path id="Path_535" data-name="Path 535" class="cls-1" d="M120.858,30.577H112.6l.272-1.874a7.22,7.22,0,0,0-7.142-8.255h-.027a7.142,7.142,0,0,0-7.06,8.228l.272,1.874H90.281v-11c-.326.054-.516.081-.652.109A6.006,6.006,0,0,1,81.4,10.916a5.937,5.937,0,0,1,4.236-1.765h0a5.942,5.942,0,0,1,3.938,1.466q.2.041.652.081V0H120.8V30.577Zm-4.671-3.259H117.6V3.259H93.54V14.121l-1.684-.054c-2.96-.109-3.666-.244-4.236-.842a2.688,2.688,0,0,0-1.928-.788h0a2.776,2.776,0,0,0-1.955.815,2.736,2.736,0,1,0,3.883,3.856c.543-.543,1.3-.733,4.182-.978l1.765-.163V27.291h1.765a10.484,10.484,0,0,1,3.041-7.06,10.457,10.457,0,0,1,14.772.027A10.538,10.538,0,0,1,116.187,27.318Z" transform="translate(-79.65)"/>
      </g>
    </g>
    <g id="Group_606" data-name="Group 606" transform="translate(349 1160.173)">
      <g id="Group_605" data-name="Group 605">
        <g id="Group_604" data-name="Group 604">
          <path id="Path_539" data-name="Path 539" class="cls-2" d="M15.18,41.195h0a6.026,6.026,0,0,1-4.562-9.966,6.591,6.591,0,0,0,.081-.679H0V0H30.577V8.255L28.7,7.984A7.226,7.226,0,0,0,22.539,20.2a7.053,7.053,0,0,0,6.137,2.009l1.874-.272v8.635h-11c.054.326.081.516.109.652a5.981,5.981,0,0,1-4.481,9.966ZM3.259,27.318H14.121L14.066,29c-.109,2.96-.244,3.666-.842,4.236a2.756,2.756,0,0,0,1.955,4.7h0a2.688,2.688,0,0,0,1.928-.788,2.77,2.77,0,0,0,0-3.883c-.543-.543-.733-1.3-.978-4.182l-.163-1.765H27.291V25.553A10.418,10.418,0,0,1,20.258,7.739a10.629,10.629,0,0,1,7.033-3.069V3.259H3.259Zm7.658,3.612Z"/>
        </g>
      </g>
    </g>
    <g id="Group_613" data-name="Group 613" transform="translate(349 1192.46)">
      <g id="Group_612" data-name="Group 612">
        <g id="Group_610" data-name="Group 610" transform="translate(4.675 1.385)">
          <path id="Path_542" data-name="Path 542" class="cls-2" d="M27.694,135.975h0a10.414,10.414,0,0,1-7.413-3.069A10.522,10.522,0,0,1,17.32,124l3.231.462a7.22,7.22,0,0,0,7.142,8.255h.027a7.142,7.142,0,0,0,7.06-8.228L38.013,124a10.477,10.477,0,0,1-2.933,8.934A10.372,10.372,0,0,1,27.694,135.975Z" transform="translate(-17.216 -124)"/>
        </g>
        <g id="Group_611" data-name="Group 611">
          <path id="Path_543" data-name="Path 543" class="cls-2" d="M30.577,149.477H0V118.9H8.255l-.272,1.874a7.22,7.22,0,0,0,7.142,8.255h.027a7.142,7.142,0,0,0,7.06-8.228l-.272-1.874h8.635v11c.326-.054.516-.081.652-.109a6.007,6.007,0,1,1,.027,9.043q-.2-.041-.652-.081v10.7ZM3.259,146.218h24.06V135.356L29,135.41c2.96.109,3.666.244,4.236.842a2.688,2.688,0,0,0,1.928.788h0a2.781,2.781,0,0,0,2.77-2.77,2.689,2.689,0,0,0-2.716-2.716h0a2.776,2.776,0,0,0-1.955.815c-.543.543-1.3.733-4.182.978l-1.765.163V122.186H25.553a10.484,10.484,0,0,1-3.041,7.06,10.376,10.376,0,0,1-7.359,3.041h-.027a10.352,10.352,0,0,1-7.386-3.069,10.629,10.629,0,0,1-3.069-7.033H3.259Z" transform="translate(0 -118.9)"/>
        </g>
      </g>
    </g>
    <g id="Group_620" data-name="Group 620" transform="translate(381.451 1181.829)">
      <g id="Group_619" data-name="Group 619" transform="translate(-10)">
        <g id="Group_618" data-name="Group 618">
          <path id="Path_547" data-name="Path 547" class="cls-2" d="M150.077,120.958H119.5V112.7l1.874.272a7.216,7.216,0,0,0,6.164-12.22,7.053,7.053,0,0,0-6.137-2.009l-1.874.272V90.381H130.5c-.054-.326-.081-.516-.109-.652a6.007,6.007,0,1,1,9.043-.027,6.59,6.59,0,0,0-.081.679h10.726ZM122.759,117.7h24.06V93.64H135.956l.054-1.684c.109-2.96.244-3.666.842-4.236a2.77,2.77,0,0,0,0-3.883,2.721,2.721,0,0,0-3.883,0,2.77,2.77,0,0,0,0,3.883c.543.543.733,1.3.978,4.182l.163,1.765H122.786v1.765a10.484,10.484,0,0,1,7.06,3.041,10.457,10.457,0,0,1-.027,14.772,10.629,10.629,0,0,1-7.033,3.069V117.7Z" transform="translate(-109.5 -79.75)"/>
        </g>
      </g>
    </g>
  </g>
</svg>
