<svg xmlns="http://www.w3.org/2000/svg" viewBox="0 0 53.722 61">
  <defs>
    <style>
      .cls-1 {
        fill: #585e62;
      }

      .cls-2 {
        fill: #e94735;
      }
    </style>
  </defs>
  <g id="Symbol_19_5" data-name="Symbol 19 – 5" transform="translate(-774 -1160)">
    <path id="Path_514" data-name="Path 514" class="cls-1" d="M43.792,3.221a5.74,5.74,0,0,0-8.046,0,5.655,5.655,0,0,0-1.463,5.559l-16.384,12,2.341,3.218L34.723,13.46,26.677,31.014l3.657,1.609L39.4,12.875a5.51,5.51,0,0,0,4.388-1.609,5.74,5.74,0,0,0,0-8.046" transform="translate(782.285 1160.729)"/>
    <path id="Path_515" data-name="Path 515" class="cls-1" d="M19.456,46.352,13.9,22.8l-1.9.439-1.9-.439L4.242,46.352H0v4.1H23.7v-4.1ZM11.849,31.87,15.36,46.352H8.338Z" transform="translate(774 1170.552)"/>
    <path id="Path_516" data-name="Path 516" class="cls-2" d="M32.217,44.324h0A31.208,31.208,0,0,1,9.982,35.108,31.313,31.313,0,0,1,1.352,18.724,32.059,32.059,0,0,1,3.4.585L6.618,0,45.237,38.619l-.585,3.218a29.993,29.993,0,0,1-12.434,2.487M6.033,5.12a26.89,26.89,0,0,0,6.875,27.209,27.231,27.231,0,0,0,19.309,8.046h0a27.871,27.871,0,0,0,7.9-1.17Z" transform="translate(774.404 1160)"/>
  </g>
</svg>
