<svg xmlns="http://www.w3.org/2000/svg" viewBox="0 0 54.487 39.724">
  <defs>
    <style>
      .cls-1 {
        fill: #ff432b;
      }

      .cls-2 {
        fill: #585d61;
      }
    </style>
  </defs>
  <g id="Symbol_37_1" data-name="Symbol 37 – 1" transform="translate(-1126.639 -881.786)">
    <path id="Path_618" data-name="Path 618" class="cls-1" d="M66.391,0A9.362,9.362,0,0,0,58.4,4.515,8.35,8.35,0,0,0,44,10.249h3.632a4.722,4.722,0,0,1,9.444,0h3.71a5.755,5.755,0,0,1-.078-.96,5.682,5.682,0,1,1,11.364,0,5.755,5.755,0,0,1-.078.96h3.658c.026-.311.052-.649.052-.96A9.318,9.318,0,0,0,66.391,0Z" transform="translate(1094.055 881.786)"/>
    <path id="Path_619" data-name="Path 619" class="cls-2" d="M50.854,40.929v3.139H47.429V34.416L45.613,32.6H8.925L7.109,34.416v9.652H3.632V40.929H0v9.885H3.632V47.7H7.109v9.963L8.925,59.48h4.2a6.183,6.183,0,0,0,11.831,0h4.592a6.183,6.183,0,0,0,11.831,0h4.2L47.4,57.664V47.7h3.451V50.84h3.632V40.929ZM19.044,60.207a2.569,2.569,0,1,1,2.569-2.569A2.558,2.558,0,0,1,19.044,60.207Zm16.45,0a2.569,2.569,0,1,1,2.569-2.569A2.558,2.558,0,0,1,35.494,60.207Zm8.3-4.385H41.41a6.183,6.183,0,0,0-11.831,0H24.96a6.183,6.183,0,0,0-11.831,0H10.742V36.232H43.8V55.822Z" transform="translate(1126.639 857.645)"/>
  </g>
</svg>
