<svg xmlns="http://www.w3.org/2000/svg" viewBox="0 0 56.568 61.634">
  <defs>
    <style>
      .cls-1 {
        fill: #e94735;
      }

      .cls-2 {
        fill: #585e62;
      }
    </style>
  </defs>
  <g id="Symbol_21_5" data-name="Symbol 21 – 5" transform="translate(-352 -1274)">
    <path id="Path_517" data-name="Path 517" class="cls-1" d="M39.127,56.015H32.8l-1.97-1.97L31.247,32.8a1.617,1.617,0,0,0-.844-1.548,9.86,9.86,0,0,1-4.5-8.3A9.991,9.991,0,0,1,31.951,13.8l2.674,1.548.563,5.91h1.548l.563-5.91L39.972,13.8a9.991,9.991,0,0,1,6.051,9.147,9.86,9.86,0,0,1-4.5,8.3,1.765,1.765,0,0,0-.844,1.548L41.1,54.045Zm-4.5-3.8h2.392l-.422-19.278a5.77,5.77,0,0,1,2.533-4.925,6.288,6.288,0,0,0,2.814-5.066,5.511,5.511,0,0,0-1.266-3.659l-.281,2.533A3.651,3.651,0,0,1,36.876,25.2H34.624a3.545,3.545,0,0,1-3.518-3.377l-.281-2.533a5.948,5.948,0,0,0,1.548,8.724,5.77,5.77,0,0,1,2.533,4.925Z" transform="translate(362.545 1279.619)"/>
    <path id="Path_518" data-name="Path 518" class="cls-2" d="M21,27.012c-6.332,0-11.4-7.6-11.4-13.79a15.506,15.506,0,0,1,.281-2.533l3.8.844a6.851,6.851,0,0,0-.141,1.689c0,5.206,4.221,9.991,7.6,9.991s7.6-4.644,7.6-9.991a6.3,6.3,0,0,0-.563-2.814L31.833,9a11.293,11.293,0,0,1,.844,4.221C32.4,19.413,27.33,27.012,21,27.012" transform="translate(355.909 1277.664)"/>
    <path id="Path_519" data-name="Path 519" class="cls-2" d="M35.742,52.065H1.97L0,50.236V39.682C0,30.677,8.724,23.5,19.419,23.5H30.395a8.024,8.024,0,0,1,1.829.141l-.281,3.8H19.419c-8.584,0-15.479,5.488-15.479,12.383v8.443h31.8v3.8Z" transform="translate(352 1283.568)"/>
    <path id="Path_520" data-name="Path 520" class="cls-2" d="M21.568,18.152c-6.614,0-13.368-1.689-13.368-5.629C8.2,5.629,14.11,0,21.568,0S34.936,5.629,34.936,12.524c0,3.94-6.754,5.629-13.368,5.629M12,12.383c.563.7,3.94,1.97,9.428,1.97,5.629,0,8.865-1.407,9.428-1.97a8.013,8.013,0,0,0-2.674-5.91A9.831,9.831,0,0,0,21.427,3.94C16.362,3.94,12.14,7.6,12,12.383" transform="translate(355.339 1274)"/>
  </g>
</svg>
