<svg xmlns="http://www.w3.org/2000/svg" viewBox="0 0 32 32">
  <defs>
    <style>
      .cls-1 {
        fill: #fff;
      }
    </style>
  </defs>
  <g id="social_facebook_circle" transform="translate(-1320 -1165)">
    <path id="Subtraction_3" data-name="Subtraction 3" class="cls-1" d="M-1884-1835a16.018,16.018,0,0,1-16-16,16.018,16.018,0,0,1,16-16,16.017,16.017,0,0,1,16,16A16.018,16.018,0,0,1-1884-1835Zm2.721-12.433a.905.905,0,0,1,.509.194,4.032,4.032,0,0,1,.7.663q.313.393.785.89a4.652,4.652,0,0,0,.8.733l.228.14a2.784,2.784,0,0,0,.593.245,1.615,1.615,0,0,0,.442.07.948.948,0,0,0,.186-.018l2.916-.052a1.393,1.393,0,0,0,.664-.14.474.474,0,0,0,.278-.314.694.694,0,0,0,0-.384,1.1,1.1,0,0,0-.087-.332.626.626,0,0,1-.052-.1,11.394,11.394,0,0,0-2.182-2.552c-.56-.524-.856-.82-1-.977a.871.871,0,0,1-.157-.925,8.524,8.524,0,0,1,1.031-1.484c.314-.4.558-.716.733-.96,1.326-1.769,1.885-2.865,1.71-3.353l-.068-.105a.646.646,0,0,0-.35-.192,1.69,1.69,0,0,0-.439-.053,2.5,2.5,0,0,0-.294.018l-3.264.018a1.331,1.331,0,0,0-.133-.009,1.709,1.709,0,0,0-.251.043l-.105.07a.4.4,0,0,0-.122.122.417.417,0,0,0-.105.192,18,18,0,0,1-1.222,2.567c-.276.466-.535.863-.759,1.209a6,6,0,0,1-.6.781,2.829,2.829,0,0,1-.436.384.44.44,0,0,1-.259.126,1.835,1.835,0,0,1-.23-.057.808.808,0,0,1-.261-.279,1.453,1.453,0,0,1-.141-.437c-.021-.21-.034-.346-.034-.454v-.541c0-.144.007-.267.012-.356l.005-.116c0-.3,0-.594.017-.943l.015-.386c.005-.164.01-.306.021-.417,0-.092,0-.188.008-.288s.009-.224.009-.341a3.655,3.655,0,0,0-.036-.524,1.52,1.52,0,0,0-.12-.367.737.737,0,0,0-.228-.279,1.1,1.1,0,0,0-.383-.157,7.4,7.4,0,0,0-1.538-.14h-.653a5.577,5.577,0,0,0-2.086.279,1.614,1.614,0,0,0-.437.349c-.1.12-.132.2-.116.24a1.524,1.524,0,0,1,1.024.529l.07.139a2.485,2.485,0,0,1,.156.524,5.4,5.4,0,0,1,.1.838,9.262,9.262,0,0,1,0,1.415c-.034.4-.07.7-.1.925a1.821,1.821,0,0,1-.156.541,1.526,1.526,0,0,1-.141.245.694.694,0,0,1-.367.105.743.743,0,0,1-.383-.157,2.167,2.167,0,0,1-.471-.437,6.322,6.322,0,0,1-.56-.786,10.45,10.45,0,0,1-.628-1.187l-.175-.332c-.067-.115-.139-.261-.224-.436-.074-.151-.153-.312-.246-.489-.192-.4-.367-.8-.524-1.17a.748.748,0,0,0-.279-.366,1.156,1.156,0,0,0-.227-.14,1.51,1.51,0,0,0-.263-.069l-3.107.017a.794.794,0,0,0-.647.21.4.4,0,0,0-.087.245.79.79,0,0,0,.07.314c.481,1.13.967,2.141,1.485,3.091.467.858.959,1.744,1.4,2.409s.827,1.218,1.2,1.711a11.717,11.717,0,0,0,.821,1.031l.153.168c.067.072.12.13.161.181l.28.279a6.415,6.415,0,0,0,.8.646,12.143,12.143,0,0,0,1.169.751,6.545,6.545,0,0,0,1.5.611,5.482,5.482,0,0,0,1.464.2l.2,0h1.31a.94.94,0,0,0,.611-.245.5.5,0,0,0,.112-.187.944.944,0,0,0,.062-.389,4.633,4.633,0,0,1,.07-.891,2.389,2.389,0,0,1,.193-.593,1.288,1.288,0,0,1,.244-.332.9.9,0,0,1,.193-.157A.61.61,0,0,1-1881.279-1847.433Z" transform="translate(3220 3032)"/>
  </g>
</svg>
