<svg xmlns="http://www.w3.org/2000/svg" viewBox="0 0 61.5 61.634">
  <defs>
    <style>
      .cls-1 {
        fill: #e94735;
      }

      .cls-2 {
        fill: #585e62;
      }
    </style>
  </defs>
  <g id="Symbol_15_4" data-name="Symbol 15 – 4" transform="translate(-350 -886)">
    <path id="Path_503" data-name="Path 503" class="cls-1" d="M41.495,61.634H20.139A20.19,20.19,0,0,1,0,41.495V20.139A20.19,20.19,0,0,1,20.139,0h21.22A20.19,20.19,0,0,1,61.5,20.139v21.22a20.019,20.019,0,0,1-20,20.274M20.139,3.785A16.325,16.325,0,0,0,3.785,20.139v21.22a16.556,16.556,0,0,0,16.49,16.49h21.22a16.556,16.556,0,0,0,16.49-16.49V20.139a16.556,16.556,0,0,0-16.49-16.49H20.139Z" transform="translate(350 886)"/>
    <path id="Path_504" data-name="Path 504" class="cls-2" d="M8.509,16.6c1.081,3.92,2.163,8.245,3.109,12.84,1.081-3.92,2.027-8.245,2.974-12.84h2.974c-1.216,5.542-2.7,11.083-4.325,16.76H9.725C8.374,27.007,6.887,21.331,5.4,16.6Z" transform="translate(351.899 891.837)"/>
    <path id="Path_505" data-name="Path 505" class="cls-2" d="M24.15,19.644a8.167,8.167,0,0,0-3.244-.676c-1.757,0-2.433.676-2.433,2.3,0,1.487.541,2.027,2.433,2.3,2.974.405,4.19,1.892,4.19,5,0,3.785-1.622,5.271-5.406,5.271a11.532,11.532,0,0,1-4.055-.676l.676-2.7a9.291,9.291,0,0,0,3.244.676c1.757,0,2.568-.541,2.568-2.3,0-1.622-.541-2.163-2.568-2.433C16.716,26,15.5,24.78,15.5,21.806c0-3.785,1.757-5.406,5.406-5.406a11.3,11.3,0,0,1,3.92.676Z" transform="translate(355.45 891.766)"/>
    <path id="Path_506" data-name="Path 506" class="cls-2" d="M33.3,33.36a38.747,38.747,0,0,1-1.081-4.19h-4.6c-.27,1.081-.541,2.568-.946,4.19H23.7c1.216-5.406,2.568-10.948,4.325-16.76H32.08c1.352,6.082,2.7,11.624,4.19,16.76ZM31.539,26.6c-.405-1.757-.811-4.19-1.352-7.3h-.27q-.608,2.636-1.622,7.3Z" transform="translate(358.333 891.837)"/>
    <path id="Path_507" data-name="Path 507" class="cls-2" d="M43.113,19.168h-3.92V33.36H36.22V19.168H32.3V16.6H43.113Z" transform="translate(361.357 891.837)"/>
  </g>
</svg>
