<svg xmlns="http://www.w3.org/2000/svg" xmlns:xlink="http://www.w3.org/1999/xlink" viewBox="0 0 883 599">
  <defs>
    <style>
      .cls-1 {
        fill: url(#linear-gradient);
      }
    </style>
    <linearGradient id="linear-gradient" x1="0.049" y1="0.898" x2="1" y2="0.901" gradientUnits="objectBoundingBox">
      <stop offset="0" stop-color="#e94835"/>
      <stop offset="1" stop-color="#f4971b"/>
    </linearGradient>
  </defs>
  <g id="Group_1064" data-name="Group 1064" transform="translate(-3.5 -0.504)">
    <path id="Worker_2" data-name="Worker 2" class="cls-1" d="M409.5.5c-78.018,0-155.382,2.7-233,9-87.22,7.2-158,81.864-170,179l-1,5c-3.2,31.929-4.6,64.071-5,96v19c.4,31.929,1.8,64.071,5,96,10,99.384,82.18,175.8,171,183h0a2991.138,2991.138,0,0,0,475,0c32.007-2.7,61.394-14.562,87-33,1.6-.9,3.4-.349,5,1,31.607,29.231,78.387,42.2,136,44h0c2.4,0,3.6-1.751,4-4v-1a5.467,5.467,0,0,0-2-4,152.936,152.936,0,0,1-39-45c-10.4-17.089-16.6-35.213-21-55a203.515,203.515,0,0,1-1-73c.8-4.5.6-8.5,1-13a1042.454,1042.454,0,0,0,1-209v-1c-10-99.384-82.18-176.8-171-184h0c-77.618-6.3-155.382-10-233-10Z" transform="translate(3)"/>
  </g>
</svg>
