<svg xmlns="http://www.w3.org/2000/svg" viewBox="0 0 61.113 61.113">
  <defs>
    <style>
      .cls-1 {
        fill: #ff432b;
      }

      .cls-2 {
        fill: #585d61;
      }
    </style>
  </defs>
  <g id="Symbol_35_1" data-name="Symbol 35 – 1" transform="translate(-720.861 -870.619)">
    <g id="Group_782" data-name="Group 782" transform="translate(754.058 881.358)">
      <path id="Path_612" data-name="Path 612" class="cls-1" d="M116.172,41.659V40.027h4.539c1.246,0,1.869,1.6,1.869,4.776a11.845,11.845,0,0,1-.208,2.492,27.533,27.533,0,0,1,2.818,4.3,5.228,5.228,0,0,0,.623-.89,11.477,11.477,0,0,0,1.335-5.874q0-8.633-5.34-8.633H111.9v3.115A31.277,31.277,0,0,1,116.172,41.659Z" transform="translate(-111.9 -36.2)"/>
    </g>
    <path id="Path_613" data-name="Path 613" class="cls-2" d="M22.813,98.249A22.725,22.725,0,1,1,45.627,75.525,22.8,22.8,0,0,1,22.813,98.249Zm0-41.325a18.586,18.586,0,1,0,18.66,18.6A18.643,18.643,0,0,0,22.813,56.924Z" transform="translate(720.861 833.483)"/>
    <path id="Path_614" data-name="Path 614" class="cls-1" d="M58.748,89H48.839v13.083H44.3v3.738h4.539v2.166H44.3v3.323h4.539v2.967h4.3v-2.967h8.218v-3.323H53.141v-2.166h5.637a4.294,4.294,0,0,0,3.975-2.314,11.477,11.477,0,0,0,1.335-5.874Q64.088,89,58.748,89ZM57.62,102.083h-4.48V92.8H57.68c1.246,0,1.869,1.6,1.869,4.776C59.549,100.6,58.9,102.083,57.62,102.083Z" transform="translate(689.704 808.022)"/>
    <g id="Group_783" data-name="Group 783" transform="translate(738.958 870.619)">
      <path id="Path_615" data-name="Path 615" class="cls-2" d="M81.2,0A22.867,22.867,0,0,0,61,12.193a27.612,27.612,0,0,1,4.717-.415h.415A18.676,18.676,0,0,1,99.863,22.725a18.54,18.54,0,0,1-7.506,14.893v.771A26.482,26.482,0,0,1,92,42.749,22.714,22.714,0,0,0,81.2,0Z" transform="translate(-61)"/>
    </g>
  </g>
</svg>
