<svg xmlns="http://www.w3.org/2000/svg" viewBox="0 0 21.016 21.004">
  <defs>
    <style>
      .cls-1 {
        fill: #585d61;
      }

      .cls-2 {
        fill: #ff432b;
      }
    </style>
  </defs>
  <g id="Symbol_40_1" data-name="Symbol 40 – 1" transform="translate(-1148.324 -464.996)">
    <g id="Group_720" data-name="Group 720" transform="translate(1148.324 464.996)">
      <path id="Path_584" data-name="Path 584" class="cls-1" d="M94.375,6.137l.021.021a4.172,4.172,0,0,1,1.192-3.471,4.125,4.125,0,0,1,2.959-1.223c.136,0,.282.01.418.021l-1.694,1.84a1.7,1.7,0,0,0,.052,2.352l1.192,1.192a1.694,1.694,0,0,0,1.2.5,1.675,1.675,0,0,0,1.15-.45l1.84-1.694a4.177,4.177,0,0,1-4.161,4.6c-.115,0-.23-.01-.345-.01l1.432,1.37a5.57,5.57,0,0,0,2.906-1.547A5.65,5.65,0,0,0,103.8,3.586l-1.181-.272-2.75,2.53a.218.218,0,0,1-.157.063.229.229,0,0,1-.167-.073L98.358,4.642a.231.231,0,0,1-.01-.324l2.53-2.75L100.606.387A5.817,5.817,0,0,0,98.536,0a5.643,5.643,0,0,0-5.625,6.147Z" transform="translate(-83.177 0)"/>
      <path id="Path_585" data-name="Path 585" class="cls-1" d="M8.238,114.272l-4.977,5.2-1.694-1.694,5.217-5.018L5.771,111.7.01,117.231,0,118.276l2.75,2.75,1.045-.01,5.457-5.687Z" transform="translate(0 -100.022)"/>
    </g>
    <path id="Path_586" data-name="Path 586" class="cls-2" d="M29.047,27.352,19.69,18.372l-1.025.01L18,19.051l-4.956-4.945.408-.408-2.53-1.8L9.8,13.008l1.8,2.541.408-.408,4.945,4.945-.669.669-.01,1.025,8.981,9.357,1.045.01,2.75-2.75ZM25.8,29.59l-7.967-8.3,1.359-1.359,8.3,7.967Z" transform="translate(1139.549 454.34)"/>
  </g>
</svg>
