<svg xmlns="http://www.w3.org/2000/svg" xmlns:xlink="http://www.w3.org/1999/xlink" viewBox="0 0 290.998 160.731">
  <defs>
    <style>
      .cls-1 {
        fill: #fff;
      }

      .cls-2 {
        fill: #555b5f;
      }

      .cls-3 {
        fill: #e94835;
      }

      .cls-4 {
        fill: #707070;
        font-size: 13px;
        font-family: HelveticaNeue, Helvetica Neue;
      }

      .cls-5 {
        filter: url(#Union_1);
      }
    </style>
    <filter id="Union_1" x="0" y="0" width="290.998" height="160.731" filterUnits="userSpaceOnUse">
      <feOffset dy="3" input="SourceAlpha"/>
      <feGaussianBlur stdDeviation="3" result="blur"/>
      <feFlood flood-opacity="0.161"/>
      <feComposite operator="in" in2="blur"/>
      <feComposite in="SourceGraphic"/>
    </filter>
  </defs>
  <g id="Symbol_30_1" data-name="Symbol 30 – 1" transform="translate(-713.002 -731)">
    <g id="Group_1021" data-name="Group 1021" transform="translate(5 -82)">
      <g class="cls-5" transform="matrix(1, 0, 0, 1, 708, 813)">
        <path id="Union_1-2" data-name="Union 1" class="cls-1" d="M-2691.637,5275.631c-6.65-2.272,4.373-16.417,1.021-29.632H-2699a20,20,0,0,1-20-20v-73a20,20,0,0,1,20-20h233a20,20,0,0,1,20,20v73a20,20,0,0,1-20,20h-202.819c-6.609,12.082-17.13,29.729-22.193,29.732A1.912,1.912,0,0,1-2691.637,5275.631Z" transform="translate(2728 -5127)"/>
      </g>
    </g>
    <g id="Group_1020" data-name="Group 1020" transform="translate(-172.822 250)">
      <g id="Group_853" data-name="Group 853" transform="translate(911.823 504.382)">
        <path id="Path_640" data-name="Path 640" class="cls-2" d="M220.1,38.935a16.4,16.4,0,0,1-4.637.6,6.846,6.846,0,0,1-3.3-.55,2.327,2.327,0,0,1-.86-2.127,2.222,2.222,0,0,1,.908-2.1,5.9,5.9,0,0,1,2.868-.55,22.011,22.011,0,0,1,2.581.215,1.288,1.288,0,0,0-.454-1.171,4.834,4.834,0,0,0-2.127-.287,12.714,12.714,0,0,0-3.035.358l-.358-1.96A22.388,22.388,0,0,1,215.817,31a6.009,6.009,0,0,1,3.274.693,2.724,2.724,0,0,1,1,2.462v4.78Zm-2.438-3.011a16.341,16.341,0,0,0-1.888-.12,4.384,4.384,0,0,0-1.434.167.769.769,0,0,0-.335.741.877.877,0,0,0,.311.789,3.427,3.427,0,0,0,1.386.167,8.431,8.431,0,0,0,1.936-.215v-1.53Z" transform="translate(-160.848 -23.591)"/>
        <path id="Path_641" data-name="Path 641" class="cls-2" d="M266.21,31.8h3.681v8.1h-2.557V34.094a57.745,57.745,0,0,0-2.892,5.377H262.6a42.509,42.509,0,0,0-2.82-5.377v5.784H257.2V31.8h3.872a36.233,36.233,0,0,1,2.557,4.684A41.886,41.886,0,0,1,266.21,31.8" transform="translate(-195.778 -24.2)"/>
        <path id="Path_642" data-name="Path 642" class="cls-2" d="M321.927,33.879V39.9H319.3V33.879H316V31.8h9.2v2.079Z" transform="translate(-240.525 -24.2)"/>
        <path id="Path_643" data-name="Path 643" class="cls-2" d="M366.382,31.766c.765.621,1.052,1.7,1.052,3.465a5.859,5.859,0,0,1-.024.717H361.1a1.388,1.388,0,0,0,.574,1.243,4.162,4.162,0,0,0,1.96.311,11.362,11.362,0,0,0,2.8-.358l.43,1.984a15.649,15.649,0,0,1-3.633.406,5.638,5.638,0,0,1-3.442-.908,3.944,3.944,0,0,1-1.386-3.394c0-3.107,1.625-4.254,4.613-4.254,1.673-.048,2.605.143,3.37.789m-1.506,2.39a1.391,1.391,0,0,0-.406-1.1,2.707,2.707,0,0,0-1.386-.263c-1.338,0-1.769.311-1.888,1.386h3.681Z" transform="translate(-272.792 -23.569)"/>
        <path id="Path_644" data-name="Path 644" class="cls-2" d="M404.732,33.979a13.1,13.1,0,0,1-.669,3.537,3.5,3.5,0,0,1-3.465,2.677c-.263-1.075-.454-1.888-.6-2.414,1.243,0,2.008-1.386,2.318-5.879h7.767V40h-2.605V33.979Z" transform="translate(-304.449 -24.276)"/>
        <path id="Path_645" data-name="Path 645" class="cls-2" d="M216.951,97.881a6.44,6.44,0,0,1-2.175.311,4.541,4.541,0,0,1-2.844-.741A3.22,3.22,0,0,1,211,94.822a3.112,3.112,0,0,1,.932-2.581,4.7,4.7,0,0,1,2.844-.741,7.379,7.379,0,0,1,2.175.287l-.215,1.028a5.791,5.791,0,0,0-1.864-.239,3.112,3.112,0,0,0-1.984.406c-.43.311-.6.884-.6,1.864a2.318,2.318,0,0,0,.574,1.84,3.268,3.268,0,0,0,2.008.454,5.861,5.861,0,0,0,1.864-.287Z" transform="translate(-160.62 -69.632)"/>
        <path id="Path_646" data-name="Path 646" class="cls-2" d="M248.868,96.865c0,1.171-.717,1.769-2.151,1.769H242.2V92.3h4.4a2.393,2.393,0,0,1,1.6.406,1.405,1.405,0,0,1,.43,1.1c0,.908-.335,1.338-1.577,1.434,1.219,0,1.816.55,1.816,1.625m-2.533-2.055c.789,0,1.028-.263,1.028-.789,0-.6-.191-.741-1.028-.741h-2.916v1.553h2.916Zm0,2.844c.86,0,1.219-.239,1.219-.884,0-.693-.43-1.028-1.291-1.028h-2.844v1.912Z" transform="translate(-184.363 -70.241)"/>
        <path id="Path_647" data-name="Path 647" class="cls-2" d="M282.546,92.3v6.333h-1.219V96.172h-1.553a2.529,2.529,0,0,0-1.577.478,5.986,5.986,0,0,0-1.362,1.984H275.4a11.871,11.871,0,0,1,1.482-2.175,2,2,0,0,1,1.243-.621c-1.53-.024-2.175-.693-2.175-1.7,0-1.243.789-1.84,2.39-1.84Zm-1.219,2.916V93.3H278.65c-1,0-1.386.215-1.386.932,0,.693.382.98,1.315.98Z" transform="translate(-209.628 -70.241)"/>
        <path id="Path_648" data-name="Path 648" class="cls-2" d="M318.333,96.556c0,1.41-1.075,1.864-3.681,1.864A15.1,15.1,0,0,1,312,98.157l.215-1.028a8.848,8.848,0,0,0,2.39.287,5.382,5.382,0,0,0,1.888-.215.8.8,0,0,0,.478-.813c0-.741-.6-1-2.223-1h-1.075v-.932h1.075c1.506,0,2.031-.263,2.031-.813a.629.629,0,0,0-.454-.621,5.412,5.412,0,0,0-1.721-.191,8.913,8.913,0,0,0-2.342.263l-.215-1a13.292,13.292,0,0,1,2.581-.287c2.509,0,3.441.454,3.441,1.577,0,.908-.454,1.458-1.816,1.553,1.41,0,2.079.55,2.079,1.625" transform="translate(-237.481 -69.86)"/>
        <path id="Path_649" data-name="Path 649" class="cls-2" d="M350.626,94.714c1.553,0,2.342.645,2.342,1.912,0,1.41-.741,2.008-2.342,2.008H346.3V92.3h1.195v2.414Zm-.215,2.964c.932,0,1.243-.287,1.243-1.028s-.335-.98-1.314-.98h-2.82v2.008Z" transform="translate(-263.584 -70.241)"/>
        <path id="Path_650" data-name="Path 650" class="cls-3" d="M3.242,12.858h0A47.717,47.717,0,0,1,23.174,2.39c1.147-.287,2.2-.5,3.155-.669A17.992,17.992,0,0,0,.9,15.057c.765-.789,1.553-1.506,2.342-2.2" transform="translate(-0.733)"/>
        <path id="Path_651" data-name="Path 651" class="cls-3" d="M109.507,78.2c-.5-.1-1.1-.215-1.721-.287A35.2,35.2,0,0,0,103.2,77.6c-4.445,0-5.64.6-5.64,4.326,0,.358,0,.693.024,1,0,.1.024.215.024.311.048.406.1.741.167,1.075a2.694,2.694,0,0,1-.359,2.175,2.392,2.392,0,0,1-.693.693c-.048.024-.024.12.048.12a3.261,3.261,0,0,0,2.677-1c0-.024.024-.024.048-.024h.024a10.07,10.07,0,0,0,2.486.382c.358.024.741.024,1.123.024q.825,0,1.577-.072a20.248,20.248,0,0,0,2.318-.358,18.286,18.286,0,0,0,2.486-8.054" transform="translate(-73.634 -59.054)"/>
        <path id="Path_652" data-name="Path 652" class="cls-3" d="M24.434,57.234a1.035,1.035,0,0,1-.119-.024c-.358-.048-.717-.119-1.052-.167a1.527,1.527,0,0,1-.167-.048,13.593,13.593,0,0,1-2.39-.693c-.1-.048-.191-.072-.287-.119a6.278,6.278,0,0,1-1.052-.574,1.313,1.313,0,0,1-.215-.167c-.119-.1-.215-.191-.335-.287-1.6-1.482-2.39-4.063-2.39-7.72,0-3.967.956-6.572,2.916-7.887,1.96-1.362,4.971-2.008,8.962-2.008a35.247,35.247,0,0,1,5.545.478c.621.1,1.243.215,1.864.335v-.024c-.6-2.581-1.458-3.991-2.39-4.828a5.437,5.437,0,0,0-2.438-1.338,10.867,10.867,0,0,0-2.629-.263c-3.394,0-13.91.741-26.313,9.727-.574.43-1.147.86-1.745,1.314A17.989,17.989,0,0,0,27.732,57.5c-1.243-.048-2.318-.143-3.3-.263" transform="translate(-0.2 -24.276)"/>
      </g>
    </g>
    <text id="_125315_г._Москва_ул._Ленинградский_Проспект_д.80_корп.37" data-name="125315, г. Москва, ул. Ленинградский Проспект, д.80, корп.37" class="cls-4" transform="translate(739 801)"><tspan x="0" y="12">125315, г. Москва, ул. Ленинградский </tspan><tspan x="0" y="27">Проспект, д.80, корп.37</tspan></text>
  </g>
</svg>
