<svg xmlns="http://www.w3.org/2000/svg" viewBox="0 0 60.45 58.768">
  <defs>
    <style>
      .cls-1 {
        fill: #ff432b;
      }

      .cls-2 {
        fill: #585d61;
      }
    </style>
  </defs>
  <g id="Symbol_32_1" data-name="Symbol 32 – 1" transform="translate(-959.55 -458.157)">
    <g id="Group_1043" data-name="Group 1043" transform="translate(959.55 474.822)">
      <path id="Path_783" data-name="Path 783" class="cls-1" d="M29.753,102.5a10.414,10.414,0,0,1-7.422-3.09L2.963,79.989a10.558,10.558,0,0,1,0-14.871l3.863-3.89A2.837,2.837,0,0,1,8.839,60.4a2.886,2.886,0,0,1,2.014.828l8.277,8.3L15.1,73.588a.468.468,0,0,0,0,.635l13,13.05a.4.4,0,0,0,.607,0l4.056-4.056,8.277,8.3a2.831,2.831,0,0,1,0,4l-3.863,3.89A10.414,10.414,0,0,1,29.753,102.5ZM8.867,64.7,5.722,67.849a6.661,6.661,0,0,0,0,9.408L25.09,96.681a6.643,6.643,0,0,0,4.69,1.959,6.576,6.576,0,0,0,4.69-1.959l3.145-3.145L32.76,88.68,31.436,90A4.214,4.214,0,0,1,28.4,91.274,4.168,4.168,0,0,1,25.366,90l-13-13.05a4.313,4.313,0,0,1,0-6.1L13.7,69.532Z" transform="translate(0.1 -60.4)"/>
    </g>
    <g id="Group_1044" data-name="Group 1044" transform="translate(982.808 458.157)">
      <path id="Path_784" data-name="Path 784" class="cls-1" d="M100.754,34.46l-3.2-1.435V27.37A13.412,13.412,0,0,1,84.2,13.961v-.579A13.388,13.388,0,0,1,97.554,0h10.512a13.382,13.382,0,0,1,13.326,13.381v.579a13.369,13.369,0,0,1-12.581,13.354Zm-3.2-30.6a9.508,9.508,0,0,0-9.463,9.519v.579a9.508,9.508,0,0,0,9.463,9.519,3.88,3.88,0,0,1,3.863,3.89v1.352l5.353-4.746,1.269-.5a9.508,9.508,0,0,0,9.463-9.519v-.579a9.508,9.508,0,0,0-9.463-9.519Z" transform="translate(-84.2)"/>
    </g>
    <g id="Group_1045" data-name="Group 1045" transform="translate(992.299 466.931)">
      <rect id="Rectangle_744" data-name="Rectangle 744" class="cls-2" width="16.554" height="3.863"/>
    </g>
    <g id="Group_1046" data-name="Group 1046" transform="translate(992.299 472.78)">
      <rect id="Rectangle_745" data-name="Rectangle 745" class="cls-2" width="11.119" height="3.863"/>
    </g>
  </g>
</svg>
