<svg xmlns="http://www.w3.org/2000/svg" viewBox="0 0 63.381 63.381">
  <defs>
    <style>
      .cls-1 {
        fill: #ff432b;
      }

      .cls-2 {
        fill: #585d61;
      }
    </style>
  </defs>
  <g id="Symbol_36_1" data-name="Symbol 36 – 1" transform="translate(-911.798 -870.619)">
    <g id="Group_785" data-name="Group 785" transform="translate(911.798 870.619)">
      <path id="Path_616" data-name="Path 616" class="cls-1" d="M31.7,63.381l-6.635-6.968-9.217,2.721L13.6,49.805,4.248,47.557,6.968,38.34,0,31.7l6.968-6.635L4.248,15.852,13.6,13.6l2.249-9.356,9.217,2.721L31.7,0l6.607,6.968,9.217-2.721L49.778,13.6l9.356,2.249-2.721,9.217L63.381,31.7l-6.968,6.607,2.721,9.217-9.356,2.249-2.249,9.356-9.217-2.721ZM26.235,52.026l5.441,5.719,5.441-5.719L44.7,54.275l1.86-7.69,7.69-1.86L52,37.146,57.718,31.7,52,26.263l2.249-7.579-7.69-1.86L44.7,9.134l-7.579,2.249L31.677,5.663l-5.441,5.691L18.656,9.106,16.8,16.8l-7.69,1.86,2.249,7.579L5.636,31.677l5.719,5.441L9.106,44.7l7.69,1.86,1.86,7.69Z"/>
    </g>
    <g id="Group_788" data-name="Group 788" transform="translate(926.595 889.081)">
      <g id="Group_786" data-name="Group 786">
        <path id="Path_617" data-name="Path 617" class="cls-2" d="M66.015,96.65,53.3,83.935,70.735,66.5l11.8.916.916,11.8ZM58.769,83.935l7.218,7.218L79.424,77.716,78.9,71l-6.718-.527Z" transform="translate(-53.3 -66.5)"/>
      </g>
      <g id="Group_787" data-name="Group 787" transform="translate(18.002 6.378)">
        <circle id="Ellipse_11" data-name="Ellipse 11" class="cls-2" cx="2.027" cy="2.027" r="2.027" transform="translate(0 2.866) rotate(-45)"/>
      </g>
    </g>
  </g>
</svg>
