<svg xmlns="http://www.w3.org/2000/svg" viewBox="0 0 59.724 60.342">
  <defs>
    <style>
      .cls-1 {
        fill: #585d61;
      }

      .cls-2 {
        fill: #ff432b;
      }
    </style>
  </defs>
  <g id="Symbol_23_5" data-name="Symbol 23 – 5" transform="translate(-1190 -1269.379)">
    <g id="Group_826" data-name="Group 826" transform="translate(1230.159 1291.297)">
      <path id="Path_628" data-name="Path 628" class="cls-1" d="M151.269,93.935l-2.913-2.913,3.325-3.325-8.944-8.944-3.325,3.325L136.5,79.166l4.766-4.766h2.913l11.886,11.857v2.913Z" transform="translate(-136.5 -74.4)"/>
    </g>
    <path id="Path_629" data-name="Path 629" class="cls-2" d="M90.982,80.1,86.54,84.543,77.066,99.93l.824.824-4.354,4.354,3.8,3.8L72.3,113.934l2.913,2.913,5.06-5.031,3.8,3.8,4.354-4.354.824.824,15.387-9.474,4.443-4.443Zm-6.943,29.656-4.649-4.648,1.442-1.442,4.649,4.648Zm18.006-10.415-5.3,3.236-3.207-3.207-2.913,2.913,2.53,2.53-3.325,2.03L82.3,99.312l2.03-3.325,2.53,2.53L89.776,95.6,86.569,92.4l3.236-5.266,1.177-1.177,12.239,12.21Z" transform="translate(1138.971 1212.874)"/>
    <g id="Group_827" data-name="Group 827" transform="translate(1208.13 1287.509)">
      <path id="Path_630" data-name="Path 630" class="cls-1" d="M62.883,62.783a4.265,4.265,0,1,1,0,6.031A4.244,4.244,0,0,1,62.883,62.783Z" transform="translate(-61.625 -61.525)"/>
    </g>
    <g id="Group_828" data-name="Group 828" transform="translate(1190 1269.379)">
      <path id="Path_631" data-name="Path 631" class="cls-2" d="M3.237,34.823l-.912-1.854A23,23,0,0,1,33.069,2.225l1.854.912L33.128,6.844l-1.854-.912A18.878,18.878,0,0,0,6.032,31.175l.912,1.854Z" transform="translate(0 0.1)"/>
    </g>
    <g id="Group_829" data-name="Group 829" transform="translate(1198.323 1277.731)">
      <path id="Path_632" data-name="Path 632" class="cls-2" d="M30.676,51.212l-.912-1.854A14.664,14.664,0,0,1,49.358,29.764l1.854.912-1.765,3.707-1.854-.912A10.566,10.566,0,0,0,33.471,47.564l.912,1.854Z" transform="translate(-28.29 -28.29)"/>
    </g>
  </g>
</svg>
