<svg xmlns="http://www.w3.org/2000/svg" viewBox="0 0 53.46 70.156">
  <defs>
    <style>
      .cls-1 {
        fill: #ff432b;
      }

      .cls-2 {
        fill: #585d61;
      }
    </style>
  </defs>
  <g id="Symbol_20_5" data-name="Symbol 20 – 5" transform="translate(-1193 -1160)">
    <g id="Group_579" data-name="Group 579" transform="translate(1224.727 1198.191)">
      <path id="Path_521" data-name="Path 521" class="cls-1" d="M115.928,156.365a1.152,1.152,0,0,1-.307-.031,1.823,1.823,0,0,1-1.351-1.013L103.4,133.3l3.316-1.627,9.734,19.713,4.545-4.545-10.287-20.819,3.316-1.627,10.87,22.016a1.868,1.868,0,0,1-.338,2.119l-7.277,7.277A2.015,2.015,0,0,1,115.928,156.365Z" transform="translate(-103.4 -124.4)"/>
    </g>
    <g id="Group_580" data-name="Group 580" transform="translate(1196.72 1160)">
      <path id="Path_522" data-name="Path 522" class="cls-1" d="M23.278,31.982,12.377,9.966a1.868,1.868,0,0,1,.338-2.119L20.023.57a1.825,1.825,0,0,1,2.948.491l10.9,21.986L30.555,24.7,20.822,4.991,16.277,9.505l10.287,20.85Z" transform="translate(-12.19 -0.025)"/>
    </g>
    <g id="Group_581" data-name="Group 581" transform="translate(1238.837 1171.787)">
      <path id="Path_523" data-name="Path 523" class="cls-1" d="M155.015,39.391a3.322,3.322,0,1,1-4.7,0A3.336,3.336,0,0,1,155.015,39.391Z" transform="translate(-149.35 -38.412)"/>
    </g>
    <g id="Group_582" data-name="Group 582" transform="translate(1232.949 1175.184)">
      <rect id="Rectangle_120" data-name="Rectangle 120" class="cls-1" width="9.427" height="3.685" transform="matrix(0.705, -0.709, 0.709, 0.705, 0, 6.686)"/>
    </g>
    <g id="Group_583" data-name="Group 583" transform="translate(1205.809 1180.566)">
      <path id="Path_524" data-name="Path 524" class="cls-2" d="M56.623,97.553a11.293,11.293,0,0,1-3.5-.583l-.368-.154L42.16,86.222l-.123-.522c-.061-.246-1.29-5.8,2.334-9.427L53.645,67,72.191,85.547l-1.29,1.29s-6.326,6.356-8.291,8.321A8.26,8.26,0,0,1,56.623,97.553Zm-1.842-3.93A5.364,5.364,0,0,0,60,92.548c1.412-1.412,5.036-5.036,6.97-7L53.645,72.189l-6.694,6.694c-1.689,1.689-1.566,4.422-1.412,5.527Z" transform="translate(-41.788 -67)"/>
    </g>
    <g id="Group_584" data-name="Group 584" transform="translate(1199.917 1198.007)">
      <path id="Path_525" data-name="Path 525" class="cls-2" d="M31.72,142.623,22.6,133.5l9.7-9.7,9.12,9.12Zm-3.9-9.089,3.9,3.9L36.2,132.95l-3.9-3.9Z" transform="translate(-22.6 -123.8)"/>
    </g>
    <g id="Group_585" data-name="Group 585" transform="translate(1193 1204.202)">
      <path id="Path_526" data-name="Path 526" class="cls-2" d="M11.751,163.573a1.768,1.768,0,0,1-1.29-.553L.6,153.164a1.872,1.872,0,0,1,0-2.61L6.654,144.5a1.872,1.872,0,0,1,2.61,0l9.826,9.857a1.872,1.872,0,0,1,0,2.61l-6.049,6.049A1.768,1.768,0,0,1,11.751,163.573ZM4.5,151.874l7.247,7.247,3.439-3.439-7.247-7.247Z" transform="translate(-0.075 -143.975)"/>
    </g>
    <g id="Group_586" data-name="Group 586" transform="translate(1218.96 1170.303)">
      <path id="Path_527" data-name="Path 527" class="cls-2" d="M103.527,61.067A18.946,18.946,0,0,1,86.147,34.69,1.8,1.8,0,0,1,87.5,33.616a1.821,1.821,0,0,1,1.658.491l22.416,22.416a1.924,1.924,0,0,1,.522,1.658,1.862,1.862,0,0,1-1.075,1.351A18.918,18.918,0,0,1,103.527,61.067ZM88.665,38.836a15.268,15.268,0,0,0,18.209,18.178Z" transform="translate(-84.617 -33.578)"/>
    </g>
  </g>
</svg>
